<svg xmlns="http://www.w3.org/2000/svg" viewBox="0 0 1739.06 631.29"><defs><style>.cls-1{fill:#fff;}.cls-2,.cls-3{fill:none;stroke-miterlimit:10;stroke-width:8.96px;}.cls-2{stroke:#000;}.cls-3{stroke:#fff;}</style></defs><title>Element 2</title><g id="Ebene_2" data-name="Ebene 2"><g id="Ebene_1-2" data-name="Ebene 1"><path d="M1096.15,510.07l1.9.32L1212.29,261.6h134.23L1291,631.29H1184.05L1213.88,432l-1.9-.63-97.1,199.91h-71.4L1008.25,442.8h-1.9L978.11,631.29H871.17L926.7,261.6h131.05Z"/><path d="M1602,481.19H1460.16L1450,549.42h169.13l-12.38,81.87H1330.69l55.53-369.68H1662.3l-12.38,81.87H1480.79L1472.54,399h141.84Z"/><path class="cls-1" d="M1091.67,505.59l1.9.32,114.24-248.78H1342L1286.51,626.8H1179.57l29.83-199.28-1.9-.63-97.1,199.91H1039l-35.22-188.49h-1.9L973.63,626.8H866.69l55.53-369.68h131.05Z"/><path class="cls-1" d="M1597.52,476.71H1455.68l-10.15,68.22h169.13l-12.38,81.87H1326.21l55.53-369.68h276.07L1645.44,339H1476.31l-8.25,55.53H1609.9Z"/><path d="M414.16,38.18v9c-11.82,2.63-26.92,11.6-35.45,39L294,357.7h-7.22L208.88,126.82,137.54,357.7h-7.22l-95-281.87c-8.1-23.2-21.45-28.23-30.86-28.67v-9c12,.88,30.86,1.31,47.93,1.31,19.7,0,37.64-.44,48.36-1.31v9c-15.54,1.09-21.88,5.25-21.88,15.54,0,5.47,1.75,12.69,4.81,22.1l65.65,199.8,54.27-173.54L191.81,75.83c-7.66-23.2-18.38-28.23-26.48-28.67v-9c10.72.88,28.23,1.31,43.55,1.31,23.2,0,44.64-.44,57.34-1.31v9c-19.91.88-30.64,2.19-30.64,16,0,5.25,1.53,12.26,4.6,21.67l64.34,199.37,55.37-173.32c4.81-15.1,7.22-26.92,7.22-36.11,0-20.35-12.26-26.92-38.3-27.57v-9c17.07.88,35.89,1.31,51.65,1.31A331.58,331.58,0,0,0,414.16,38.18Z"/><path d="M577.12,301.67c-9.85,30-39.39,60.18-83.82,60.18-65,0-103.08-47.49-103.08-116.21,0-78.78,39.83-127.15,101.32-127.15,52.52,0,83.82,30.86,83.82,98.48H435.31a236.26,236.26,0,0,0-1.53,28.67c0,61.5,34.14,97.39,68.5,97.39,26.92,0,50.33-11.38,65.87-44.86ZM434.65,208.44h97.6C533.79,164.68,519.78,127,489.8,127,463.1,127,439.47,152,434.65,208.44Z"/><path d="M749.71,135.35c14.22,14.44,17.95,31.08,17.95,62.81V322.68c0,14.44,3.5,21.23,13.79,21.23,8.1,0,14-4.16,20.13-9.41l5,7.66c-12.47,9.41-21.88,16.41-40.92,16.41-31.29,0-38.52-18.82-38.52-39.83-19.26,31.73-47.49,39.83-68.94,39.83-30,0-56.9-15.1-56.9-50.12,0-35.45,27.36-51.21,72.22-70,30-12.47,53.62-20.13,53.62-38.08V172.55c0-37.64-18.38-45.08-41.58-45.08-15.32,0-34.14,3.06-44.43,16a27.66,27.66,0,0,1,21,27.36c0,15.32-10.29,24.29-26.26,24.29-15.32,0-24.29-11.6-24.29-27.79,0-13.13,8.53-23.42,21-32,12.69-8.32,34.14-16.85,62.81-16.85C720.61,118.5,739.43,125.07,749.71,135.35Zm-22.54,83.38c-4.81,7.22-14.66,11.82-42.89,25.6-19.7,9.41-43.55,22.32-43.55,56.9,0,26.92,15.32,39.39,35.89,39.39,17.95,0,35.45-9.41,50.55-33.92Z"/><path d="M945.94,125.07v9H879.63V307.58c0,28.23,10.72,38.08,28.67,38.08s31.08-12.91,40.49-47.93l8.75,2.19c-6.13,35-21.88,61.93-58.21,61.93-20.57,0-32.61-5-42.46-14.88-13.13-13.35-17.51-30.86-17.51-62.81V134H796.25v-9h43.11V56.57c14.66-.44,29.11-2.19,40.27-6.35v74.84Z"/><path d="M1024,172.12c15.76-40.27,45.74-53.62,76.16-53.62,23,0,37.2,6.13,47.49,16.85,11.16,12.26,15.76,28.23,15.76,58.87V313.93c0,24.95,9.41,32.17,34.14,32.17v9.41c-10.5-.44-34.14-1.75-53.84-1.75s-40.92,1.31-50.33,1.75V346.1c21.67,0,29.76-7.22,29.76-32.17V184.37c0-27.79-4.16-51.65-36.33-51.65-36.77,0-62.81,33.7-62.81,81.19v100c0,24.95,8.1,32.17,29.54,32.17v9.41c-9.41-.44-30.42-1.75-50.12-1.75s-43.55,1.31-53.84,1.75V346.1c24.73,0,34.14-7.22,34.14-32.17V58.32c0-26.92-8.1-39.39-34.14-39.39V9.52c9.41.88,18.82,1.31,27.79,1.31,17.51,0,33.7-1.75,46.61-6.35Z"/><path d="M1399,301.67c-9.85,30-39.39,60.18-83.82,60.18-65,0-103.08-47.49-103.08-116.21,0-78.78,39.83-127.15,101.32-127.15,52.52,0,83.82,30.86,83.82,98.48H1257.21a236.26,236.26,0,0,0-1.53,28.67c0,61.5,34.14,97.39,68.5,97.39,26.92,0,50.33-11.38,65.87-44.86Zm-142.47-93.23h97.6c1.53-43.77-12.47-81.41-42.46-81.41C1285,127,1261.37,152,1256.55,208.44Z"/><path d="M1599,153.73c0,15.32-9.85,28.23-25.6,28.23-12.47,0-23.85-8.32-23.85-23.2,0-11.16,7.22-19.26,15.32-24.29-2.19-3.06-5.47-4.38-9.41-4.38-37.64,0-62.37,51-62.37,84.26v95c0,29.11,17.95,36.77,47.49,36.77v9.41c-13.79-.44-41.14-1.75-68.94-1.75-20.57,0-42.67,1.31-53,1.75V346.1c24.73,0,34.14-7.22,34.14-32.17V173.65c0-26.92-8.1-39.61-34.14-39.61v-9.41c9.41.88,18.82,1.31,27.79,1.31,17.51,0,33.7-1.75,46.61-6.13v56c9.41-26,33.7-57.34,65-57.34C1582.34,118.5,1599,134.48,1599,153.73Z"/><path class="cls-1" d="M409.68,33.7v9c-11.82,2.63-26.92,11.6-35.45,39L289.53,353.21h-7.22L204.4,122.33,133.06,353.21h-7.22l-95-281.87C22.76,48.15,9.41,43.11,0,42.67v-9C12,34.58,30.86,35,47.93,35c19.7,0,37.64-.44,48.36-1.31v9c-15.54,1.09-21.88,5.25-21.88,15.54,0,5.47,1.75,12.69,4.81,22.1l65.65,199.8,54.27-173.54L187.33,71.34c-7.66-23.2-18.38-28.23-26.48-28.67v-9c10.72.88,28.23,1.31,43.55,1.31,23.2,0,44.64-.44,57.34-1.31v9c-19.91.88-30.64,2.19-30.64,16,0,5.25,1.53,12.26,4.6,21.67L300,279.68,355.4,106.36c4.81-15.1,7.22-26.92,7.22-36.11,0-20.35-12.26-26.92-38.3-27.57v-9C341.4,34.58,360.22,35,376,35A331.58,331.58,0,0,0,409.68,33.7Z"/><path class="cls-1" d="M572.64,297.19c-9.85,30-39.39,60.18-83.82,60.18-65,0-103.08-47.49-103.08-116.21,0-78.78,39.83-127.15,101.32-127.15,52.52,0,83.82,30.86,83.82,98.48H430.83a236.26,236.26,0,0,0-1.53,28.67c0,61.5,34.14,97.39,68.5,97.39,26.92,0,50.33-11.38,65.87-44.86ZM430.17,204h97.6c1.53-43.77-12.47-81.41-42.46-81.41C458.62,122.55,435,147.5,430.17,204Z"/><path class="cls-1" d="M745.23,130.87c14.22,14.44,17.95,31.08,17.95,62.81V318.2c0,14.44,3.5,21.23,13.79,21.23,8.1,0,14-4.16,20.13-9.41l5,7.66c-12.47,9.41-21.88,16.41-40.92,16.41-31.29,0-38.52-18.82-38.52-39.83-19.26,31.73-47.49,39.83-68.94,39.83-30,0-56.9-15.1-56.9-50.12,0-35.45,27.36-51.21,72.22-70,30-12.47,53.62-20.13,53.62-38.08V168.07c0-37.64-18.38-45.08-41.58-45.08-15.32,0-34.14,3.06-44.43,16a27.66,27.66,0,0,1,21,27.36c0,15.32-10.29,24.29-26.26,24.29-15.32,0-24.29-11.6-24.29-27.79,0-13.13,8.53-23.42,21-32C640.84,122.55,662.29,114,691,114,716.13,114,734.95,120.58,745.23,130.87Zm-22.54,83.38c-4.81,7.22-14.66,11.82-42.89,25.6-19.7,9.41-43.55,22.32-43.55,56.9,0,26.92,15.32,39.39,35.89,39.39,17.95,0,35.45-9.41,50.55-33.92Z"/><path class="cls-1" d="M941.46,120.58v9H875.15V303.1c0,28.23,10.72,38.08,28.67,38.08s31.08-12.91,40.49-47.93l8.75,2.19c-6.13,35-21.88,61.93-58.21,61.93-20.57,0-32.61-5-42.46-14.88-13.13-13.35-17.51-30.86-17.51-62.81V129.56H791.77v-9h43.11V52.08c14.66-.44,29.11-2.19,40.27-6.35v74.84Z"/><path class="cls-1" d="M1019.51,167.63c15.76-40.27,45.74-53.62,76.16-53.62,23,0,37.2,6.13,47.49,16.85,11.16,12.26,15.76,28.23,15.76,58.87V309.45c0,24.95,9.41,32.17,34.14,32.17V351c-10.5-.44-34.14-1.75-53.84-1.75s-40.92,1.31-50.33,1.75v-9.41c21.67,0,29.76-7.22,29.76-32.17V179.89c0-27.79-4.16-51.65-36.33-51.65-36.77,0-62.81,33.7-62.81,81.19v100c0,24.95,8.1,32.17,29.54,32.17V351c-9.41-.44-30.42-1.75-50.12-1.75s-43.55,1.31-53.84,1.75v-9.41c24.73,0,34.14-7.22,34.14-32.17V53.84c0-26.92-8.1-39.39-34.14-39.39V5c9.41.88,18.82,1.31,27.79,1.31,17.51,0,33.7-1.75,46.61-6.35Z"/><path class="cls-1" d="M1394.54,297.19c-9.85,30-39.39,60.18-83.82,60.18-65,0-103.08-47.49-103.08-116.21,0-78.78,39.83-127.15,101.32-127.15,52.52,0,83.82,30.86,83.82,98.48H1252.73a236.26,236.26,0,0,0-1.53,28.67c0,61.5,34.14,97.39,68.5,97.39,26.92,0,50.33-11.38,65.87-44.86ZM1252.07,204h97.6c1.53-43.77-12.47-81.41-42.46-81.41C1280.52,122.55,1256.88,147.5,1252.07,204Z"/><path class="cls-1" d="M1594.49,149.25c0,15.32-9.85,28.23-25.6,28.23-12.47,0-23.85-8.32-23.85-23.2,0-11.16,7.22-19.26,15.32-24.29-2.19-3.06-5.47-4.38-9.41-4.38-37.64,0-62.37,51-62.37,84.26v95c0,29.11,17.95,36.77,47.49,36.77V351c-13.79-.44-41.14-1.75-68.94-1.75-20.57,0-42.67,1.31-53,1.75v-9.41c24.73,0,34.14-7.22,34.14-32.17V169.17c0-26.92-8.1-39.61-34.14-39.61v-9.41c9.41.88,18.82,1.31,27.79,1.31,17.51,0,33.7-1.75,46.61-6.13v56c9.41-26,33.7-57.34,65-57.34C1577.85,114,1594.49,130,1594.49,149.25Z"/><line class="cls-2" x1="6.8" y1="405.18" x2="876.29" y2="405.18"/><line class="cls-3" x1="2.32" y1="400.69" x2="871.81" y2="400.69"/><line class="cls-2" x1="1633.74" y1="405.18" x2="1739.06" y2="405.18"/><line class="cls-3" x1="1629.26" y1="400.69" x2="1734.58" y2="400.69"/></g></g></svg>