<svg xmlns="http://www.w3.org/2000/svg" viewBox="0 0 1080 166.09"><defs><style>.cls-1,.cls-2{fill:#fff;}.cls-1{opacity:0.2;}</style></defs><title>Element 2</title><g id="Ebene_2" data-name="Ebene 2"><g id="Ebene_1-2" data-name="Ebene 1"><path class="cls-1" d="M0,166.09H1080V83.6q-13.81,1.42-27.93,1.73A337.15,337.15,0,0,1,901.48,53.58a334,334,0,0,1-39.32-21.75A339.35,339.35,0,0,0,562.45,38.1a334,334,0,0,1-38.38,23.37,337.15,337.15,0,0,1-149.13,38A337.15,337.15,0,0,1,224.36,67.73,334,334,0,0,1,185,46,337.15,337.15,0,0,0,34.45,14.23,342.74,342.74,0,0,0,0,16.69Z"/><path class="cls-1" d="M1080,158.09V16.15a342.68,342.68,0,0,0-34.87-1A337.15,337.15,0,0,0,896,53.13,334,334,0,0,1,857.62,76.5a337.15,337.15,0,0,1-149.13,38A337.14,337.14,0,0,1,557.91,82.77,334,334,0,0,1,518.59,61a339.35,339.35,0,0,0-299.71,6.27,334,334,0,0,1-38.38,23.37,340.31,340.31,0,0,0-71.28,67.44Z"/><path class="cls-2" d="M0,166.09H1080v-102c-7.52,4.71-15.24,12.13-23.15,16.25a337.14,337.14,0,0,1-149.13,38A337.15,337.15,0,0,1,757.14,86.6a334,334,0,0,1-39.32-21.75,339.35,339.35,0,0,0-299.71,6.27,334,334,0,0,1-38.38,23.37,337.15,337.15,0,0,1-149.13,38A337.15,337.15,0,0,1,80,100.76,334,334,0,0,1,40.69,79,336.23,336.23,0,0,0,0,63.08Z"/></g></g></svg>