<?xml version="1.0" encoding="utf-8"?>
<!-- Generator: Adobe Illustrator 21.0.0, SVG Export Plug-In . SVG Version: 6.00 Build 0)  -->
<svg version="1.1" id="Ebene_1" xmlns="http://www.w3.org/2000/svg" xmlns:xlink="http://www.w3.org/1999/xlink" x="0px" y="0px"
	 viewBox="0 0 427 427" style="enable-background:new 0 0 427 427;" xml:space="preserve">
<style type="text/css">
	.st0{fill:#FFFFFF;}
</style>
<path class="st0" d="M379.5,188.5h-0.6c-11.6,0-20.9,9.8-20.9,22.6v18c0,3.9-3.1,7-7,7c-3.9,0-7-3.1-7-7v-33.3
	c0-12.7-9.3-23.1-20.9-23.1c-11.7,0-21,10.4-21,23.1v35.3c0,3.9-3.1,7-7,7c-3.9,0-7-3.1-7-7v-44.9c0-12.7-10-22.6-21.6-22.6h-0.7
	c-11.3,0-20.7,9.3-20.7,21.6v50.6c0,3.9-3.1,7-7,7c-3.9,0-7-3.1-7-7v-49.1c0-0.2,0-0.3,0-0.5c0-0.4,0-0.8,0-1.2V70.1
	c0-12.7-9.7-23.1-21.3-23.1c-11.6,0-21.3,10.3-21.3,23.1l-0.1,190.5c0,3-1.9,5.6-4.6,6.6c-2.8,1-5.9,0.1-7.8-2.1l-22.7-27.7
	c-5.9-7.4-14.6-12-24.1-12.8c-9.3-0.6-18.3,2.7-25.1,9c-0.1,0.1-0.2,0.2-0.3,0.2l-4.2,3.5l78.7,151.2c12.4,23.8,35.7,38.6,61,38.6
	h91.1c38.5,0,69.9-33.8,69.9-75.4c0-22.1,0-38.6,0.1-52c0-35.8,0.1-48.9,0-88.3C400.5,198.6,391.1,188.5,379.5,188.5z"/>
<path class="st0" d="M86.1,47.6c2.7,2.7,7.2,2.7,9.9,0s2.7-7.1,0-9.9L70.3,12.1c-0.7-2.6-2.8-4.5-5.4-5c-2.6-0.5-5.3,0.5-6.9,2.6
	c0,0,0,0-0.1,0.1L30,37.8c-2.7,2.7-2.7,7.2,0,9.9c2.7,2.7,7.1,2.7,9.9,0l16.8-16.8v173.4l-16.8-16.8c-2.7-2.7-7.2-2.7-9.9,0
	c-2.7,2.7-2.7,7.2,0,9.9L58,225.4c2.7,2.7,7.1,2.7,9.9,0L96,197.3c2.7-2.7,2.7-7.1,0-9.9c-2.7-2.7-7.1-2.7-9.9,0L70.6,203V32.1
	L86.1,47.6z"/>
<path class="st0" d="M157.7,65.9c0-28.7,23.3-51.9,51.9-51.9s51.9,23.3,51.9,51.9c0,3.9,3.1,7,7,7c3.9,0,7-3.1,7-7
	C275.5,29.5,246,0,209.6,0c-36.4,0-65.9,29.5-65.9,65.9c0,3.9,3.1,7,7,7C154.6,72.9,157.7,69.8,157.7,65.9z"/>
</svg>
